<svg width="1068" height="521" viewBox="0 0 1068 521" fill="none" xmlns="http://www.w3.org/2000/svg">
<path fill-rule="evenodd" clip-rule="evenodd" d="M54 0C24.1766 0 0 24.1765 0 54V87.3887C89.0688 98.4639 158 174.432 158 266.5C158 358.568 89.0688 434.536 0 445.611V467C0 496.823 24.1766 521 54 521H429C458.823 521 483 496.823 483 467V54C483 24.1765 458.823 0 429 0H54Z" fill="#CB1240"/>
<path fill-rule="evenodd" clip-rule="evenodd" d="M1014 0C1043.82 0 1068 24.1766 1068 54V87.3887C978.931 98.4639 910 174.432 910 266.5C910 358.568 978.931 434.536 1068 445.611V467C1068 496.823 1043.82 521 1014 521H639C609.177 521 585 496.823 585 467V54C585 24.1766 609.177 0 639 0H1014Z" fill="#CB1240"/>
<rect x="274" width="483" height="521" rx="54" fill="#CB1240"/>
<path d="M696.899 142.12C707.672 131.347 707.672 113.852 696.899 103.079C686.126 92.3068 668.632 92.3068 657.859 103.079L382.079 378.859C371.307 389.632 371.307 407.126 382.079 417.899C392.852 428.672 410.347 428.672 421.12 417.899L696.899 142.12V142.12ZM484.376 150.221C484.376 119.799 459.642 95.0646 429.221 95.0646C398.799 95.0646 374.065 119.799 374.065 150.221C374.065 180.642 398.799 205.376 429.221 205.376C459.642 205.376 484.376 180.642 484.376 150.221ZM705 370.844C705 340.422 680.266 315.688 649.844 315.688C619.422 315.688 594.688 340.422 594.688 370.844C594.688 401.266 619.422 426 649.844 426C680.266 426 705 401.266 705 370.844Z" fill="white"/>
</svg>
