<svg width="682" height="369" viewBox="0 0 682 369" fill="none" xmlns="http://www.w3.org/2000/svg">
<path d="M668.547 186.467C618.333 98.8733 434.28 5.53332 355.933 0.999984C322.72 -0.911482 297.761 7.38546 281.887 25.6973C262.428 48.14 263.069 78.6453 264.496 91.9573L6.33602 317.344C6.27872 317.391 6.24747 317.459 6.2006 317.5C5.44019 318.177 4.79433 318.964 4.25273 319.839C4.15378 319.995 4.04441 320.146 3.95586 320.302C3.52878 321.063 3.1694 321.854 2.9194 322.719C2.13295 325.495 -4.38793 350.276 9.20581 363.87C11.7162 366.385 13.7214 368.396 33.6271 368.396C47.7005 368.396 70.7151 367.385 109.168 364.833C165.632 361.094 237.548 354.911 306.515 347.874C414.504 336.848 601.915 314.978 643.755 292.369C644.844 291.781 645.771 290.989 646.578 290.13C655.812 284.65 665.818 274.447 675.151 256.192C685.594 235.755 683.375 212.296 668.568 186.468L668.547 186.467ZM281.933 106.472C285.366 105.597 293.673 103.889 306.355 103.889C348.204 103.889 435.131 121.957 557.115 239.395L49.3014 309.551L281.933 106.472ZM23.8267 345.872C22.9881 343.341 22.9465 339.513 23.3111 335.763L581.471 258.648C585.107 268.138 590.888 277.121 598.263 283.913C545.826 296.486 445.516 310.955 314.25 324.569C164.876 340.069 46.5964 347.367 23.8231 345.872H23.8267ZM655.187 246.017C649.432 257.299 637.703 275.829 624.004 273.277C612.671 271.173 601.285 255.397 599.619 239.528C598.947 233.153 599.671 224.94 606.905 221.944C615.259 218.48 619.197 218.824 619.843 219.142C621.171 220.621 621.285 228.085 619.535 234.335C617.827 240.278 621.27 246.481 627.218 248.185C633.171 249.856 639.363 246.445 641.067 240.502C642.301 236.195 647.801 214.086 634.765 202.445C626.499 195.044 614.223 194.643 598.322 201.242C587.004 205.924 579.775 215.586 577.661 228.154C447.374 100.894 352.167 81.4738 306.341 81.4738C298.216 81.4738 291.554 82.0728 286.314 82.8227C285.965 71.2394 287.585 53.2081 298.871 40.2707C309.95 27.5571 328.731 21.8747 354.626 23.3441C426.762 27.5107 602.866 116.932 649.106 197.597C659.929 216.452 661.976 232.743 655.189 246.019L655.187 246.017Z" fill="white"/>
<path d="M300.693 125.107C274.485 125.107 247.964 134.247 247.964 151.7C247.964 169.159 274.495 178.293 300.693 178.293C326.896 178.293 353.423 169.153 353.423 151.7C353.423 134.247 326.901 125.107 300.693 125.107Z" fill="white"/>
<path d="M403.36 189.507C377.152 189.507 350.631 198.647 350.631 216.1C350.631 233.559 377.161 242.693 403.36 242.693C429.563 242.693 456.089 233.553 456.089 216.1C456.089 198.647 429.568 189.507 403.36 189.507Z" fill="white"/>
<path d="M209.227 215.64C183.019 215.64 156.497 224.781 156.497 242.233C156.497 259.692 183.028 268.827 209.227 268.827C235.429 268.827 261.956 259.686 261.956 242.233C261.956 224.78 235.435 215.64 209.227 215.64Z" fill="white"/>
</svg>
