<svg width="91" height="91" viewBox="0 0 91 91" fill="none" xmlns="http://www.w3.org/2000/svg">
<path d="M0.644531 36.8613C0.644531 41.8743 1.58854 46.5781 3.47656 50.9727C5.36458 55.3672 7.96875 59.2409 11.2891 62.5938C14.6419 65.9466 18.5156 68.5671 22.9102 70.4551C27.3047 72.3431 32.0085 73.2871 37.0215 73.2871C41.0905 73.2871 44.9316 72.6686 48.5449 71.4316C52.1582 70.1621 55.4785 68.4206 58.5059 66.207L81.748 89.5469C82.2363 90.0026 82.7897 90.3444 83.4082 90.5723C84.0592 90.8327 84.7103 90.9629 85.3613 90.9629C86.3379 90.9629 87.2005 90.735 87.9492 90.2793C88.6979 89.8561 89.2839 89.2539 89.707 88.4727C90.1302 87.724 90.3418 86.8613 90.3418 85.8848C90.3418 85.2337 90.2116 84.599 89.9512 83.9805C89.7233 83.3945 89.3815 82.8574 88.9258 82.3691L65.7812 59.127C68.1901 56.0671 70.0781 52.6491 71.4453 48.873C72.8125 45.0645 73.4961 41.0605 73.4961 36.8613C73.4961 31.8158 72.5521 27.0957 70.6641 22.7012C68.776 18.3066 66.1556 14.4492 62.8027 11.1289C59.4499 7.77604 55.5762 5.1556 51.1816 3.26758C46.7871 1.34701 42.0671 0.386719 37.0215 0.386719C32.0085 0.386719 27.3047 1.34701 22.9102 3.26758C18.5156 5.1556 14.6419 7.77604 11.2891 11.1289C7.96875 14.4492 5.36458 18.3066 3.47656 22.7012C1.58854 27.0957 0.644531 31.8158 0.644531 36.8613ZM7.72461 36.8613C7.72461 32.7923 8.48958 29 10.0195 25.4844C11.5495 21.9362 13.6491 18.8275 16.3184 16.1582C19.0202 13.4564 22.1289 11.3568 25.6445 9.85938C29.1927 8.32943 32.985 7.56445 37.0215 7.56445C41.0905 7.56445 44.8828 8.32943 48.3984 9.85938C51.9466 11.3568 55.0553 13.4564 57.7246 16.1582C60.4264 18.8275 62.526 21.9362 64.0234 25.4844C65.5534 29 66.3184 32.7923 66.3184 36.8613C66.3184 40.8978 65.5534 44.6901 64.0234 48.2383C62.526 51.7539 60.4264 54.8626 57.7246 57.5645C55.0553 60.2337 51.9466 62.3333 48.3984 63.8633C44.8828 65.3607 41.0905 66.1094 37.0215 66.1094C32.985 66.1094 29.1927 65.3607 25.6445 63.8633C22.1289 62.3333 19.0202 60.2337 16.3184 57.5645C13.6491 54.8626 11.5495 51.7539 10.0195 48.2383C8.48958 44.6901 7.72461 40.8978 7.72461 36.8613Z" fill="#CB1240"/>
</svg>
